SplineFontDB: 3.2
FontName: Confettis
FullName: Confettis
FamilyName: Confettis
Weight: normal
Copyright: Copyright (c) 2021, Theaustudio
UComments: "2021-12-30: Created with FontForge (http://fontforge.org)"
Version: 001.000
ItalicAngle: 0
UnderlinePosition: -20
UnderlineWidth: 60
Ascent: 714
Descent: 310
InvalidEm: 0
LayerCount: 2
Layer: 0 0 "Arri+AOgA-re" 1
Layer: 1 0 "Avant" 0
XUID: [1021 998 -504324599 13643]
StyleMap: 0x0000
FSType: 0
OS2Version: 0
OS2_WeightWidthSlopeOnly: 0
OS2_UseTypoMetrics: 1
CreationTime: 1640893080
ModificationTime: 1641064293
OS2TypoAscent: 0
OS2TypoAOffset: 1
OS2TypoDescent: 0
OS2TypoDOffset: 1
OS2TypoLinegap: 92
OS2WinAscent: 0
OS2WinAOffset: 1
OS2WinDescent: 0
OS2WinDOffset: 1
HheadAscent: 0
HheadAOffset: 1
HheadDescent: 0
HheadDOffset: 1
MarkAttachClasses: 1
DEI: 91125
Encoding: Custom
UnicodeInterp: none
NameList: AGL For New Fonts
DisplaySize: -48
AntiAlias: 1
FitToEm: 0
WidthSeparation: 150
WinInfo: 0 34 13
BeginPrivate: 0
EndPrivate
TeXData: 1 0 0 346030 173015 115343 397756 1048576 115343 783286 444596 497025 792723 393216 433062 380633 303038 157286 324010 404750 52429 2506097 1059062 262144
BeginChars: 258 192

StartChar: a
Encoding: 97 97 0
Width: 397
Flags: HW
HStem: 764 20G<1043.51 1047.51>
LayerCount: 2
Fore
SplineSet
292 298 m 1
 344 31 l 1
 344 31 81 -48 58 132 c 0
 48 212 88 268 137 292 c 0
 194 320 292 298 292 298 c 1
EndSplineSet
Validated: 33
EndChar

StartChar: b
Encoding: 98 98 1
Width: 430
Flags: HW
LayerCount: 2
Fore
SplineSet
52 534 m 1
 143 524 l 1
 222 295 l 1
 222 295 363 324 373 184 c 0
 380 87 326 33 244 18 c 0
 175 5 86 30 86 30 c 1
 52 534 l 1
EndSplineSet
Validated: 33
EndChar

StartChar: c
Encoding: 99 99 2
Width: 396
Flags: HW
LayerCount: 2
Fore
SplineSet
247 310 m 1
 245 210 l 2
 246 209 202 197 212 169 c 0
 221 144 273 159 273 159 c 1
 354 66 l 1
 350 44 282 1 207 7 c 0
 93 17 60 90 57 125 c 0
 37 336 234 312 247 310 c 1
EndSplineSet
Validated: 33
EndChar

StartChar: d
Encoding: 100 100 3
Width: 413
Flags: HW
LayerCount: 2
Fore
SplineSet
193 538 m 1
 293 540 l 1
 357 38 l 1
 357 38 68 -63 52 120 c 0
 41 252 167 289 167 289 c 1
 193 538 l 1
EndSplineSet
Validated: 33
EndChar

StartChar: e
Encoding: 101 101 4
Width: 391
Flags: HW
LayerCount: 2
Fore
SplineSet
321 110 m 1
 321 17 l 1
 273 19 68 -23 58 124 c 0
 50 242 121 303 193 306 c 0
 247 308 325 288 326 200 c 0
 327 103 198 108 198 108 c 1
 321 110 l 1
EndSplineSet
Validated: 37
EndChar

StartChar: f
Encoding: 102 102 5
Width: 373
Flags: HW
LayerCount: 2
Fore
SplineSet
54 -125 m 1
 90 401 l 2
 91 425 116 502 206 500 c 0
 340 497 328 355 328 355 c 1
 224 350 l 1
 215 196 l 1
 289 191 l 1
 284 108 l 1
 212 108 l 1
 187 -98 l 1
 54 -125 l 1
EndSplineSet
Validated: 33
EndChar

StartChar: g
Encoding: 103 103 6
Width: 416
Flags: HW
LayerCount: 2
Fore
SplineSet
339 302 m 1
 351 -177 l 2
 351 -198 351 -307 202 -310 c 0
 55 -313 57 -179 57 -179 c 1
 253 -183 l 1
 252 14 l 1
 205 12 53 0 57 151 c 0
 61 298 206 303 245 303 c 0
 284 303 339 302 339 302 c 1
EndSplineSet
Validated: 33
EndChar

StartChar: h
Encoding: 104 104 7
Width: 394
Flags: HW
LayerCount: 2
Fore
SplineSet
93 542 m 1
 189 535 l 1
 200 287 l 1
 200 287 225 306 258 300 c 0
 329 286 333 150 337 14 c 1
 63 11 l 1
 93 542 l 1
EndSplineSet
Validated: 33
EndChar

StartChar: i
Encoding: 105 105 8
Width: 251
Flags: HW
LayerCount: 2
Fore
SplineSet
78 298 m 1
 161 315 l 1
 192 15 l 1
 64 20 l 1
 78 298 l 1
63 453 m 1
 150 455 l 1
 160 366 l 1
 125 363 l 1
 63 453 l 1
EndSplineSet
Validated: 1
EndChar

StartChar: j
Encoding: 106 106 9
Width: 327
Flags: HW
LayerCount: 2
Fore
SplineSet
128 302 m 1
 211 308 l 1
 297 -180 l 1
 297 -180 318 -286 187 -306 c 0
 40 -329 8 -211 24 -163 c 1
 169 -149 l 1
 128 302 l 1
113 385 m 1
 185 451 l 1
 239 369 l 1
 170 332 l 1
 113 385 l 1
EndSplineSet
Validated: 33
EndChar

StartChar: k
Encoding: 107 107 10
Width: 373
Flags: HW
LayerCount: 2
Fore
SplineSet
71 5 m 1
 72 505 l 1
 156 509 l 1
 196 233 l 1
 267 309 l 1
 315 255 l 1
 230 159 l 1
 332 40 l 1
 260 -3 l 1
 165 116 l 1
 177 8 l 1
 71 5 l 1
EndSplineSet
Validated: 1
EndChar

StartChar: l
Encoding: 108 108 11
Width: 277
Flags: HW
LayerCount: 2
Fore
SplineSet
79 534 m 1
 201 529 l 1
 206 13 l 1
 67 13 l 1
 79 534 l 1
EndSplineSet
Validated: 1
EndChar

StartChar: m
Encoding: 109 109 12
Width: 521
Flags: HW
LayerCount: 2
Fore
SplineSet
68 22 m 1
 63 166 l 1
 63 166 56 307 177 307 c 0
 298 307 321 217 321 217 c 1
 321 217 336 240 378 239 c 0
 424 238 450 212 454 164 c 2
 462 18 l 1
 68 22 l 1
EndSplineSet
Validated: 33
EndChar

StartChar: n
Encoding: 110 110 13
Width: 312
Flags: HW
LayerCount: 2
Fore
SplineSet
79 14 m 1
 61 215 l 1
 61 215 57 287 145 285 c 0
 233 283 236 209 236 209 c 1
 250 16 l 1
 79 14 l 1
EndSplineSet
Validated: 33
EndChar

StartChar: o
Encoding: 111 111 14
Width: 429
Flags: HW
LayerCount: 2
Fore
SplineSet
189 306 m 0
 276 308 343 277 363 194 c 0
 383 111 335 35 246 19 c 0
 157 3 87 25 61 121 c 0
 35 217 102 304 189 306 c 0
EndSplineSet
Validated: 33
EndChar

StartChar: p
Encoding: 112 112 15
Width: 429
Flags: HW
LayerCount: 2
Fore
SplineSet
57 289 m 1
 57 289 127 305 163 306 c 0
 246 309 350 282 366 180 c 0
 387 49 289 7 235 -2 c 1
 247 -302 l 1
 113 -297 l 1
 57 289 l 1
EndSplineSet
Validated: 33
EndChar

StartChar: q
Encoding: 113 113 16
Width: 495
Flags: HW
LayerCount: 2
Fore
SplineSet
310 293 m 1
 475 -307 l 1
 322 -307 l 1
 266 3 l 1
 266 3 60 -68 57 133 c 0
 54 334 310 293 310 293 c 1
EndSplineSet
Validated: 33
EndChar

StartChar: r
Encoding: 114 114 17
Width: 449
Flags: HW
LayerCount: 2
Fore
SplineSet
63 8 m 1
 79 300 l 1
 79 300 247 337 295 305 c 0
 375 251 329 143 261 131 c 1
 416 30 l 1
 346 -6 l 1
 164 107 l 1
 166 10 l 1
 63 8 l 1
EndSplineSet
Validated: 33
EndChar

StartChar: s
Encoding: 115 115 18
Width: 445
Flags: HW
LayerCount: 2
Fore
SplineSet
342 312 m 1
 347 202 l 1
 224 185 l 1
 224 185 386 193 390 86 c 0
 392 34 365 20 295 14 c 0
 237 9 85 10 85 10 c 1
 65 106 l 1
 187 111 l 1
 187 111 67 108 58 198 c 0
 50 275 106 308 188 312 c 2
 342 312 l 1
EndSplineSet
Validated: 33
EndChar

StartChar: t
Encoding: 116 116 19
Width: 344
Flags: HW
LayerCount: 2
Fore
SplineSet
104 528 m 1
 215 538 l 1
 203 397 l 1
 284 388 l 1
 303 280 l 1
 203 275 l 1
 189 -19 l 1
 57 -11 l 1
 104 528 l 1
EndSplineSet
Validated: 1
EndChar

StartChar: u
Encoding: 117 117 20
Width: 366
Flags: HW
LayerCount: 2
Fore
SplineSet
74 321 m 1
 300 308 l 1
 295 145 l 2
 291 111 293 3 167 12 c 0
 53 20 60 113 63 171 c 2
 74 321 l 1
EndSplineSet
Validated: 33
EndChar

StartChar: v
Encoding: 118 118 21
Width: 356
Flags: HW
LayerCount: 2
Fore
SplineSet
37 309 m 1
 310 305 l 1
 176 14 l 1
 37 309 l 1
EndSplineSet
Validated: 1
EndChar

StartChar: w
Encoding: 119 119 22
Width: 558
Flags: HW
LayerCount: 2
Fore
SplineSet
36 310 m 1
 507 308 l 1
 420 15 l 1
 282 125 l 1
 197 16 l 1
 36 310 l 1
EndSplineSet
Validated: 1
EndChar

StartChar: x
Encoding: 120 120 23
Width: 483
Flags: HW
HStem: 109 293
LayerCount: 2
Fore
SplineSet
67 303 m 1
 394 305 l 1
 306 180 l 1
 450 10 l 1
 39 14 l 1
 176 186 l 1
 67 303 l 1
EndSplineSet
Validated: 1
EndChar

StartChar: y
Encoding: 121 121 24
Width: 447
Flags: HW
LayerCount: 2
Fore
SplineSet
37 245 m 1
 113 315 l 1
 252 168 l 1
 297 288 l 1
 371 272 l 1
 386 -168 l 1
 386 -168 384 -296 248 -308 c 0
 101 -321 99 -211 98 -169 c 1
 272 -153 l 1
 253 38 l 1
 37 245 l 1
EndSplineSet
Validated: 33
EndChar

StartChar: z
Encoding: 122 122 25
Width: 493
Flags: HW
LayerCount: 2
Fore
SplineSet
58 313 m 1
 366 300 l 1
 281 139 l 1
 442 125 l 1
 431 14 l 1
 58 16 l 1
 174 197 l 1
 65 203 l 1
 58 313 l 1
EndSplineSet
Validated: 1
EndChar

StartChar: quotedbl
Encoding: 34 34 27
Width: 341
Flags: HW
LayerCount: 2
Fore
SplineSet
54 704 m 1
 135 711 l 1
 164 542 l 1
 99 533 l 1
 54 704 l 1
202 680 m 1
 277 685 l 1
 274 549 l 1
 204 547 l 1
 202 680 l 1
EndSplineSet
Validated: 1
EndChar

StartChar: numbersign
Encoding: 35 35 28
Width: 702
Flags: HW
LayerCount: 2
Fore
SplineSet
523 439 m 1
 669 442 l 1
 599 310 l 1
 523 310 l 1
 523 241 l 1
 616 240 l 1
 624 99 l 1
 523 107 l 1
 523 13 l 1
 340 8 l 1
 349 121 l 1
 242 130 l 1
 221 2 l 1
 92 16 l 1
 110 141 l 1
 67 144 l 1
 57 244 l 1
 124 244 l 1
 134 306 l 1
 69 306 l 1
 42 430 l 1
 152 432 l 1
 166 528 l 1
 308 531 l 1
 292 434 l 1
 373 436 l 1
 380 531 l 1
 523 531 l 1
 523 439 l 1
271 308 m 1
 261 243 l 1
 358 242 l 1
 363 308 l 1
 271 308 l 1
EndSplineSet
Validated: 1
EndChar

StartChar: exclam
Encoding: 33 33 29
Width: 275
Flags: HW
LayerCount: 2
Fore
SplineSet
93 112 m 1
 213 111 l 1
 211 13 l 1
 89 24 l 1
 93 112 l 1
45 718 m 1
 180 731 l 1
 210 177 l 1
 96 152 l 1
 45 718 l 1
EndSplineSet
Validated: 1
EndChar

StartChar: dollar
Encoding: 36 36 30
Width: 601
Flags: HW
LayerCount: 2
Fore
SplineSet
267 548 m 1
 297 550 327 551 357 552 c 1
 359 599 l 1
 424 599 l 1
 422 552 l 1
 484 552 531 549 531 549 c 1
 531 405 l 1
 531 405 480 407 418 408 c 1
 417 371 l 1
 471 367 517 351 528 320 c 0
 550 259 579 77 456 40 c 0
 441 36 424 32 406 29 c 1
 404 -56 l 1
 332 -56 l 1
 335 20 l 1
 302 17 266 17 233 16 c 1
 229 -56 l 1
 142 -56 l 1
 151 16 l 1
 97 17 58 20 58 20 c 1
 72 215 l 2
 71 219 120 218 175 218 c 1
 178 245 l 1
 119 250 82 263 70 323 c 0
 48 431 53 481 112 516 c 0
 133 529 170 538 213 543 c 1
 220 599 l 1
 270 599 l 1
 267 548 l 1
EndSplineSet
Validated: 33
EndChar

StartChar: percent
Encoding: 37 37 31
Width: 415
Flags: HW
LayerCount: 2
Fore
SplineSet
286 76 m 1
 381 113 l 1
 360 -9 l 1
 268 14 l 1
 286 76 l 1
259 531 m 1
 340 517 l 1
 194 -9 l 1
 65 14 l 1
 259 531 l 1
76 527 m 1
 168 473 l 1
 70 401 l 1
 30 465 l 1
 76 527 l 1
EndSplineSet
Validated: 1
EndChar

StartChar: ampersand
Encoding: 38 38 32
Width: 512
Flags: HW
LayerCount: 2
Fore
SplineSet
423 45 m 1
 372 83 l 1
 372 83 212 -52 83 54 c 0
 -46 160 171 309 171 309 c 1
 117 352 103 531 243 531 c 0
 320 531 392 519 401 440 c 0
 410 361 302 292 302 292 c 1
 483 93 l 1
 423 45 l 1
221 247 m 1
 221 247 90 181 159 109 c 0
 215 50 314 137 314 137 c 1
 221 247 l 1
249 360 m 1
 249 360 356 422 309 454 c 0
 262 486 229 478 215 445 c 0
 201 412 249 360 249 360 c 1
EndSplineSet
Validated: 33
EndChar

StartChar: quotesingle
Encoding: 39 39 33
Width: 206
Flags: HW
LayerCount: 2
Fore
SplineSet
64 672 m 1
 141 674 l 1
 125 531 l 1
 62 533 l 1
 64 672 l 1
EndSplineSet
Validated: 1
EndChar

StartChar: guillemotleft
Encoding: 171 171 34
Width: 354
Flags: HW
LayerCount: 2
Fore
SplineSet
158 436 m 1
 209 410 l 1
 124 306 l 1
 218 214 l 1
 164 176 l 1
 50 306 l 1
 158 436 l 1
244 402 m 1
 287 381 l 1
 232 307 l 1
 301 233 l 1
 257 202 l 1
 166 302 l 1
 244 402 l 1
EndSplineSet
Validated: 1
EndChar

StartChar: guillemotright
Encoding: 187 187 35
Width: 312
Flags: HW
LayerCount: 2
Fore
SplineSet
169 418 m 1
 256 307 l 1
 192 185 l 1
 145 219 l 1
 191 305 l 1
 128 383 l 1
 169 418 l 1
88 395 m 1
 156 305 l 1
 100 213 l 1
 56 238 l 1
 108 306 l 1
 54 368 l 1
 88 395 l 1
EndSplineSet
Validated: 1
EndChar

StartChar: asciicircum
Encoding: 94 94 36
Width: 499
Flags: HW
LayerCount: 2
Fore
SplineSet
255 712 m 1
 443 599 l 1
 410 539 l 1
 258 605 l 1
 104 530 l 1
 50 572 l 1
 255 712 l 1
EndSplineSet
Validated: 1
EndChar

StartChar: Acircumflex
Encoding: 194 194 37
Width: 636
Flags: HW
LayerCount: 2
Fore
SplineSet
141 640 m 1
 97 619 l 1
 43 661 l 1
 248 801 l 1
 436 687 l 1
 403 628 l 1
 354 649 l 1
 599 20 l 1
 54 -1 l 1
 141 640 l 1
EndSplineSet
Validated: 1
EndChar

StartChar: Egrave
Encoding: 200 200 38
Width: 587
Flags: HW
LayerCount: 2
Fore
SplineSet
298 721 m 1
 516 721 l 1
 494 525 l 1
 335 526 l 1
 342 391 l 1
 445 401 l 1
 445 314 l 1
 364 303 l 1
 369 166 l 1
 511 169 l 1
 539 14 l 1
 91 31 l 1
 45 721 l 1
 220 721 l 1
 146 851 l 1
 247 884 l 1
 298 721 l 1
EndSplineSet
Validated: 1
EndChar

StartChar: Eacute
Encoding: 201 201 39
Width: 587
Flags: HW
LayerCount: 2
Fore
SplineSet
231 721 m 1
 282 881 l 1
 383 849 l 1
 311 721 l 1
 516 721 l 1
 494 525 l 1
 335 526 l 1
 342 391 l 1
 445 401 l 1
 445 314 l 1
 364 303 l 1
 369 166 l 1
 511 169 l 1
 539 14 l 1
 91 31 l 1
 45 721 l 1
 231 721 l 1
EndSplineSet
Validated: 1
EndChar

StartChar: Ecircumflex
Encoding: 202 202 40
Width: 587
Flags: HW
LayerCount: 2
Fore
SplineSet
83 721 m 1
 287 860 l 1
 474 746 l 1
 460 721 l 1
 516 721 l 1
 494 525 l 1
 335 526 l 1
 342 391 l 1
 445 401 l 1
 445 314 l 1
 364 303 l 1
 369 166 l 1
 511 169 l 1
 539 14 l 1
 91 31 l 1
 45 721 l 1
 83 721 l 1
224 721 m 1
 363 721 l 1
 290 752 l 1
 224 721 l 1
EndSplineSet
Validated: 1
EndChar

StartChar: Edieresis
Encoding: 203 203 41
Width: 588
Flags: HW
LayerCount: 2
Fore
SplineSet
250 721 m 1
 300 721 l 1
 280 790 l 1
 365 791 l 1
 371 721 l 1
 516 721 l 1
 494 525 l 1
 335 526 l 1
 342 391 l 1
 445 401 l 1
 445 314 l 1
 364 303 l 1
 369 166 l 1
 511 169 l 1
 539 14 l 1
 91 31 l 1
 45 721 l 1
 180 721 l 1
 179 784 l 1
 250 797 l 1
 250 721 l 1
EndSplineSet
Validated: 1
EndChar

StartChar: Igrave
Encoding: 204 204 42
Width: 349
Flags: HW
LayerCount: 2
Fore
SplineSet
226 714 m 1
 291 714 l 1
 252 26 l 1
 69 -6 l 1
 81 714 l 1
 147 714 l 1
 73 843 l 1
 174 876 l 1
 226 714 l 1
EndSplineSet
Validated: 1
EndChar

StartChar: Iacute
Encoding: 205 205 43
Width: 349
Flags: HW
LayerCount: 2
Fore
SplineSet
145 714 m 1
 196 876 l 1
 297 843 l 1
 224 714 l 1
 291 714 l 1
 252 26 l 1
 69 -6 l 1
 81 714 l 1
 145 714 l 1
EndSplineSet
Validated: 1
EndChar

StartChar: Icircumflex
Encoding: 206 206 44
Width: 442
Flags: HW
LayerCount: 2
Fore
SplineSet
119 651 m 1
 75 630 l 1
 21 671 l 1
 226 811 l 1
 414 698 l 1
 381 638 l 1
 327 662 l 1
 291 26 l 1
 108 -6 l 1
 119 651 l 1
EndSplineSet
Validated: 1
EndChar

StartChar: Idieresis
Encoding: 207 207 45
Width: 349
Flags: HW
LayerCount: 2
Fore
SplineSet
168 714 m 1
 219 714 l 1
 198 788 l 1
 283 789 l 1
 289 715 l 1
 287 714 l 1
 291 714 l 1
 252 26 l 1
 69 -6 l 1
 81 714 l 1
 98 714 l 1
 96 781 l 1
 168 794 l 1
 168 714 l 1
EndSplineSet
Validated: 1
EndChar

StartChar: less
Encoding: 60 60 46
Width: 334
Flags: HW
LayerCount: 2
Fore
SplineSet
189 431 m 1
 255 371 l 1
 184 306 l 1
 287 222 l 1
 231 144 l 1
 47 301 l 1
 189 431 l 1
EndSplineSet
Validated: 1
EndChar

StartChar: equal
Encoding: 61 61 47
Width: 481
Flags: HW
LayerCount: 2
Fore
SplineSet
407 183 m 1
 415 99 l 1
 97 92 l 1
 73 176 l 1
 407 183 l 1
68 302 m 1
 407 305 l 1
 411 220 l 1
 69 227 l 1
 68 302 l 1
EndSplineSet
Validated: 1
EndChar

StartChar: greater
Encoding: 62 62 48
Width: 302
Flags: HW
LayerCount: 2
Fore
SplineSet
86 411 m 1
 251 303 l 1
 148 167 l 1
 62 213 l 1
 135 303 l 1
 52 364 l 1
 86 411 l 1
EndSplineSet
Validated: 1
EndChar

StartChar: Yacute
Encoding: 221 221 49
Width: 591
Flags: HW
LayerCount: 2
Fore
SplineSet
278 717 m 1
 326 868 l 1
 427 835 l 1
 359 715 l 1
 561 711 l 1
 335 7 l 1
 118 31 l 1
 219 298 l 1
 21 722 l 1
 278 717 l 1
EndSplineSet
Validated: 1
EndChar

StartChar: parenleft
Encoding: 40 40 50
Width: 335
Flags: HW
LayerCount: 2
Fore
SplineSet
249 714 m 1
 252 547 l 1
 252 547 192 531 195 352 c 0
 198 173 279 188 279 188 c 1
 297 14 l 1
 297 14 192 -11 122 54 c 0
 54 118 68 212 59 454 c 0
 50 696 249 714 249 714 c 1
EndSplineSet
Validated: 33
EndChar

StartChar: parenright
Encoding: 41 41 51
Width: 344
Flags: HW
LayerCount: 2
Fore
SplineSet
73 715 m 1
 73 715 260 773 282 481 c 0
 300 249 260 105 200 57 c 0
 131 3 50 15 50 15 c 1
 57 200 l 1
 57 200 122 177 148 363 c 0
 176 564 88 563 88 563 c 1
 73 715 l 1
EndSplineSet
Validated: 33
EndChar

StartChar: asterisk
Encoding: 42 42 52
Width: 444
Flags: HW
LayerCount: 2
Fore
SplineSet
277 577 m 1
 349 650 l 1
 399 608 l 1
 315 526 l 1
 381 525 l 1
 379 440 l 1
 304 441 l 1
 386 359 l 1
 351 333 l 1
 295 385 l 1
 303 307 l 1
 194 299 l 1
 188 402 l 1
 106 316 l 1
 48 342 l 1
 145 445 l 1
 52 447 l 1
 41 534 l 1
 139 531 l 1
 65 606 l 1
 114 641 l 1
 179 568 l 1
 173 665 l 1
 268 667 l 1
 277 577 l 1
EndSplineSet
Validated: 1
EndChar

StartChar: plus
Encoding: 43 43 53
Width: 473
Flags: HW
LayerCount: 2
Fore
SplineSet
54 311 m 1
 196 307 l 1
 187 461 l 1
 323 460 l 1
 317 309 l 1
 416 306 l 1
 423 216 l 1
 322 209 l 1
 311 57 l 1
 213 61 l 1
 213 207 l 1
 63 205 l 1
 54 311 l 1
EndSplineSet
Validated: 1
EndChar

StartChar: comma
Encoding: 44 44 54
Width: 308
Flags: HW
LayerCount: 2
Fore
SplineSet
71 140 m 1
 241 130 l 1
 246 -97 l 1
 246 -97 254 -189 173 -203 c 0
 122 -212 69 -198 69 -198 c 1
 75 -146 l 1
 75 -146 147 -142 161 -115 c 0
 175 -88 161 17 161 17 c 1
 74 17 l 1
 71 140 l 1
EndSplineSet
Validated: 33
EndChar

StartChar: hyphen
Encoding: 45 45 55
Width: 483
Flags: HW
LayerCount: 2
Fore
SplineSet
67 308 m 1
 419 301 l 1
 403 219 l 1
 65 235 l 1
 67 308 l 1
EndSplineSet
Validated: 1
EndChar

StartChar: period
Encoding: 46 46 56
Width: 256
Flags: HW
LayerCount: 2
Fore
SplineSet
68 121 m 1
 161 155 l 1
 197 16 l 1
 80 12 l 1
 68 121 l 1
EndSplineSet
Validated: 1
EndChar

StartChar: slash
Encoding: 47 47 57
Width: 376
Flags: HW
LayerCount: 2
Fore
SplineSet
175 678 m 1
 346 712 l 1
 165 21 l 1
 39 12 l 1
 175 678 l 1
EndSplineSet
Validated: 1
EndChar

StartChar: zero
Encoding: 48 48 58
Width: 453
Flags: HW
LayerCount: 2
Fore
SplineSet
89 491 m 0
 126 584 352 568 380 478 c 0
 396 426 439 63 285 4 c 0
 231 -17 152 -42 76 76 c 0
 44 125 63 424 89 491 c 0
EndSplineSet
Validated: 33
EndChar

StartChar: one
Encoding: 49 49 59
Width: 487
Flags: HW
LayerCount: 2
Fore
SplineSet
179 517 m 1
 371 517 l 1
 434 4 l 1
 242 4 l 1
 204 292 l 1
 114 230 l 1
 38 356 l 1
 179 517 l 1
EndSplineSet
Validated: 1
EndChar

StartChar: two
Encoding: 50 50 60
Width: 535
Flags: HW
LayerCount: 2
Fore
SplineSet
42 517 m 1
 223 517 l 1
 223 517 344 526 362 480 c 0
 411 356 424 336 394 292 c 0
 364 248 272 171 272 171 c 1
 467 179 l 1
 493 -14 l 1
 148 -14 l 1
 80 326 l 1
 100 328 113 329 125 330 c 0
 147 332 157 330 154 352 c 0
 152 367 140 368 121 368 c 0
 108 368 93 367 72 367 c 1
 42 517 l 1
EndSplineSet
Validated: 33
EndChar

StartChar: three
Encoding: 51 51 61
Width: 478
Flags: HW
LayerCount: 2
Fore
SplineSet
53 517 m 1
 53 517 291 545 304 517 c 0
 317 489 346 457 355 383 c 0
 364 309 293 292 293 292 c 1
 293 292 378 301 398 270 c 0
 418 239 430 190 428 112 c 0
 426 34 323 12 272 4 c 0
 221 -4 94 4 94 4 c 1
 81 200 l 1
 81 200 133 211 166 217 c 0
 182 220 187 230 186 239 c 0
 183 257 170 263 152 260 c 0
 124 256 82 252 82 252 c 1
 65 350 l 1
 65 350 94 362 117 371 c 0
 130 376 134 386 133 395 c 0
 132 406 123 411 110 407 c 0
 93 402 70 396 70 396 c 1
 53 517 l 1
EndSplineSet
Validated: 33
EndChar

StartChar: four
Encoding: 52 52 62
Width: 466
Flags: HW
LayerCount: 2
Fore
SplineSet
77 523 m 1
 270 536 l 1
 257 326 l 1
 397 298 l 1
 424 23 l 1
 203 6 l 1
 179 181 l 1
 48 203 l 1
 77 523 l 1
EndSplineSet
Validated: 1
EndChar

StartChar: five
Encoding: 53 53 63
Width: 484
Flags: HW
LayerCount: 2
Fore
SplineSet
65 523 m 1
 382 523 l 1
 379 372 l 1
 211 358 l 1
 230 293 l 1
 230 293 370 327 394 300 c 0
 418 273 435 189 432 114 c 0
 429 39 378 44 316 26 c 0
 254 8 86 18 86 18 c 1
 65 523 l 1
EndSplineSet
Validated: 33
EndChar

StartChar: six
Encoding: 54 54 64
Width: 456
Flags: HW
LayerCount: 2
Fore
SplineSet
340 512 m 1
 349 364 l 1
 204 361 l 1
 217 285 l 1
 217 285 316 309 346 291 c 0
 376 273 394 266 396 232 c 0
 398 198 435 29 345 17 c 0
 255 5 201 -3 146 50 c 0
 99 96 56 154 58 280 c 0
 59 392 80 429 114 477 c 0
 167 552 340 512 340 512 c 1
EndSplineSet
Validated: 33
EndChar

StartChar: seven
Encoding: 55 55 65
Width: 410
Flags: HW
LayerCount: 2
Fore
SplineSet
66 533 m 1
 367 507 l 1
 293 -3 l 1
 140 16 l 1
 200 355 l 1
 36 340 l 1
 66 533 l 1
EndSplineSet
Validated: 1
EndChar

StartChar: eight
Encoding: 56 56 66
Width: 433
Flags: HW
LayerCount: 2
Fore
SplineSet
134 525 m 0
 219 539 372 547 348 414 c 0
 329 307 293 313 293 313 c 1
 353 308 390 203 389 111 c 0
 389 86 372 52 356 31 c 0
 322 -11 145 -6 103 35 c 0
 92 46 71 85 66 144 c 0
 63 183 58 267 98 305 c 1
 -1 405 75 516 134 525 c 0
EndSplineSet
Validated: 37
EndChar

StartChar: nine
Encoding: 57 57 67
Width: 409
Flags: HW
LayerCount: 2
Fore
SplineSet
286 516 m 0
 311 496 320 474 326 442 c 0
 342 358 350 237 352 138 c 0
 351 85 335 50 301 38 c 1
 89 21 l 1
 68 153 l 1
 74 269 l 1
 147 278 l 1
 143 304 l 1
 71 312 l 1
 71 312 46 355 54 417 c 0
 63 493 90 525 150 530 c 0
 211 535 255 542 286 516 c 0
EndSplineSet
Validated: 33
EndChar

StartChar: colon
Encoding: 58 58 68
Width: 271
Flags: HW
LayerCount: 2
Fore
SplineSet
81 114 m 1
 211 117 l 1
 204 21 l 1
 108 13 l 1
 81 114 l 1
151 304 m 1
 212 211 l 1
 91 196 l 1
 60 266 l 1
 151 304 l 1
EndSplineSet
Validated: 1
EndChar

StartChar: semicolon
Encoding: 59 59 69
Width: 312
Flags: HW
LayerCount: 2
Fore
SplineSet
69 115 m 1
 239 131 l 1
 249 -87 l 1
 249 -87 261 -173 180 -187 c 0
 140 -194 72 -188 72 -188 c 1
 80 -131 l 1
 80 -131 142 -128 155 -101 c 0
 169 -73 156 30 156 30 c 1
 78 26 l 1
 69 115 l 1
70 304 m 1
 243 304 l 1
 209 193 l 1
 75 210 l 1
 70 304 l 1
EndSplineSet
Validated: 33
EndChar

StartChar: question
Encoding: 63 63 70
Width: 411
Flags: HW
LayerCount: 2
Fore
SplineSet
217 162 m 1
 298 85 l 1
 241 7 l 1
 148 69 l 1
 217 162 l 1
24 537 m 1
 24 537 79 709 201 730 c 0
 352 756 411 635 359 540 c 0
 310 452 302 433 270 372 c 0
 250 335 262 288 276 206 c 1
 154 187 l 1
 122 348 l 1
 172 455 208 501 234 549 c 0
 258 593 245 635 214 586 c 0
 177 528 146 482 146 482 c 1
 24 537 l 1
EndSplineSet
Validated: 33
EndChar

StartChar: A
Encoding: 65 65 71
Width: 635
Flags: HW
LayerCount: 2
Fore
SplineSet
52 14 m 1
 147 714 l 1
 332 714 l 1
 597 35 l 1
 52 14 l 1
EndSplineSet
Validated: 1
EndChar

StartChar: B
Encoding: 66 66 72
Width: 709
Flags: HW
LayerCount: 2
Fore
SplineSet
37 695 m 1
 37 695 203 706 274 711 c 0
 425 721 484 586 358 531 c 1
 445 565 638 511 640 290 c 2
 640 32 l 1
 109 7 l 1
 37 695 l 1
EndSplineSet
Validated: 33
EndChar

StartChar: C
Encoding: 67 67 73
Width: 663
Flags: HW
LayerCount: 2
Fore
SplineSet
339 723 m 1
 427 532 l 1
 427 532 258 437 325 352 c 0
 392 267 498 291 498 291 c 1
 627 30 l 1
 627 30 406 21 322 19 c 0
 230 17 128 95 91 170 c 0
 54 245 45 379 45 464 c 1
 52 584 200 697 339 723 c 1
EndSplineSet
Validated: 33
EndChar

StartChar: D
Encoding: 68 68 74
Width: 595
Flags: HW
LayerCount: 2
Fore
SplineSet
49 713 m 1
 294 714 l 1
 490 702 570 331 516 123 c 0
 487 11 427 19 376 14 c 0
 343 11 88 23 88 23 c 1
 49 713 l 1
EndSplineSet
Validated: 33
EndChar

StartChar: E
Encoding: 69 69 75
Width: 588
Flags: HW
LayerCount: 2
Fore
SplineSet
45 722 m 1
 516 722 l 1
 494 526 l 1
 335 527 l 1
 342 392 l 1
 445 402 l 1
 445 315 l 1
 364 304 l 1
 369 167 l 1
 511 170 l 1
 539 15 l 1
 91 32 l 1
 45 722 l 1
EndSplineSet
Validated: 1
EndChar

StartChar: F
Encoding: 70 70 76
Width: 478
Flags: HW
LayerCount: 2
Fore
SplineSet
42 717 m 1
 415 716 l 1
 443 501 l 1
 277 488 l 1
 285 404 l 1
 332 409 l 1
 346 312 l 1
 290 308 l 1
 284 18 l 1
 100 8 l 1
 42 717 l 1
EndSplineSet
Validated: 1
EndChar

StartChar: G
Encoding: 71 71 77
Width: 707
Flags: HW
LayerCount: 2
Fore
SplineSet
612 517 m 1
 493 544 386 548 333 455 c 0
 295 388 313 303 313 303 c 1
 389 299 l 1
 388 392 l 1
 642 378 l 1
 642 378 653 257 625 140 c 0
 597 23 391 -15 205 37 c 0
 19 89 17 390 113 600 c 0
 209 810 612 702 612 702 c 1
 612 517 l 1
EndSplineSet
Validated: 33
EndChar

StartChar: H
Encoding: 72 72 78
Width: 733
Flags: HW
LayerCount: 2
Fore
SplineSet
37 717 m 1
 291 696 l 1
 305 529 l 1
 400 527 l 1
 387 711 l 1
 387 711 603 714 620 714 c 1
 603 714 677 0 677 0 c 1
 433 3 l 1
 397 421 l 1
 316 418 l 1
 350 14 l 1
 106 18 l 1
 37 717 l 1
EndSplineSet
Validated: 33
EndChar

StartChar: I
Encoding: 73 73 79
Width: 349
Flags: HW
LayerCount: 2
Fore
SplineSet
81 713 m 1
 291 713 l 1
 252 25 l 1
 69 -8 l 1
 81 713 l 1
EndSplineSet
Validated: 1
EndChar

StartChar: J
Encoding: 74 74 80
Width: 566
Flags: HW
LayerCount: 2
Fore
SplineSet
318 700 m 1
 461 715 l 1
 503 118 l 1
 498 106 414 22 308 12 c 0
 192 1 99 66 91 116 c 1
 37 294 l 1
 353 321 l 1
 318 700 l 1
EndSplineSet
Validated: 33
EndChar

StartChar: K
Encoding: 75 75 81
Width: 567
Flags: HW
LayerCount: 2
Fore
SplineSet
37 697 m 1
 234 729 l 1
 255 517 l 1
 339 672 l 1
 468 604 l 1
 380 358 l 1
 526 156 l 1
 424 48 l 1
 288 219 l 1
 307 17 l 1
 108 14 l 1
 37 697 l 1
EndSplineSet
Validated: 1
EndChar

StartChar: L
Encoding: 76 76 82
Width: 592
Flags: HW
LayerCount: 2
Fore
SplineSet
28 702 m 1
 290 694 l 1
 297 297 l 1
 527 296 l 1
 524 30 l 1
 139 14 l 1
 28 702 l 1
EndSplineSet
Validated: 1
EndChar

StartChar: M
Encoding: 77 77 83
Width: 617
Flags: HW
LayerCount: 2
Fore
SplineSet
41 714 m 1
 358 563 l 1
 478 721 l 1
 564 4 l 1
 98 32 l 1
 41 714 l 1
EndSplineSet
Validated: 1
EndChar

StartChar: N
Encoding: 78 78 84
Width: 578
Flags: HW
LayerCount: 2
Fore
SplineSet
80 710 m 1
 463 522 l 1
 525 15 l 1
 69 25 l 1
 80 710 l 1
EndSplineSet
Validated: 1
EndChar

StartChar: O
Encoding: 79 79 85
Width: 628
Flags: HW
LayerCount: 2
Fore
SplineSet
280 701 m 0
 465 719 582 559 569 373 c 0
 556 187 528 14 326 14 c 0
 80 14 44 246 49 418 c 0
 54 590 83 682 280 701 c 0
EndSplineSet
Validated: 33
EndChar

StartChar: P
Encoding: 80 80 86
Width: 577
Flags: HW
LayerCount: 2
Fore
SplineSet
78 3 m 1
 61 660 l 1
 61 660 229 701 387 688 c 0
 543 675 533 546 532 415 c 0
 531 282 302 273 302 273 c 1
 328 22 l 1
 78 3 l 1
EndSplineSet
Validated: 33
EndChar

StartChar: Q
Encoding: 81 81 87
Width: 707
Flags: HW
LayerCount: 2
Fore
SplineSet
312 683 m 0
 449 703 658 552 650 360 c 0
 642 168 580 128 580 128 c 1
 367 289 l 1
 300 225 l 1
 477 61 l 1
 477 61 271 -86 131 77 c 0
 -9 240 73 450 73 450 c 1
 73 450 175 663 312 683 c 0
EndSplineSet
Validated: 33
EndChar

StartChar: R
Encoding: 82 82 88
Width: 698
Flags: HW
LayerCount: 2
Fore
SplineSet
43 660 m 1
 43 660 267 743 381 703 c 0
 495 663 554 484 544 412 c 0
 532 328 396 291 396 291 c 1
 659 153 l 1
 552 -9 l 1
 288 205 l 1
 368 14 l 1
 99 -10 l 1
 43 660 l 1
EndSplineSet
Validated: 33
EndChar

StartChar: S
Encoding: 83 83 89
Width: 701
Flags: HW
LayerCount: 2
Fore
SplineSet
620 706 m 1
 620 521 l 1
 620 521 444 526 345 525 c 0
 309 524 285 511 285 500 c 0
 285 491 295 485 349 489 c 0
 436 496 592 499 609 446 c 0
 635 367 676 97 533 50 c 0
 390 3 71 24 71 24 c 1
 86 275 l 2
 84 281 206 276 287 277 c 0
 326 278 356 277 358 286 c 0
 361 301 316 291 272 294 c 0
 182 299 76 306 59 396 c 0
 33 535 66 619 134 664 c 0
 233 730 620 706 620 706 c 1
EndSplineSet
Validated: 33
EndChar

StartChar: T
Encoding: 84 84 90
Width: 610
Flags: HW
LayerCount: 2
Fore
SplineSet
37 722 m 1
 567 688 l 1
 569 479 l 1
 410 480 l 1
 419 4 l 1
 194 73 l 1
 211 505 l 1
 29 522 l 1
 37 722 l 1
EndSplineSet
Validated: 1
EndChar

StartChar: U
Encoding: 85 85 91
Width: 667
Flags: HW
LayerCount: 2
Fore
SplineSet
72 708 m 0
 85 708 611 713 611 713 c 1
 611 713 619 439 577 237 c 0
 552 118 439 -3 293 1 c 0
 127 6 61 145 58 279 c 0
 54 472 64 708 72 708 c 0
EndSplineSet
Validated: 33
EndChar

StartChar: V
Encoding: 86 86 92
Width: 571
Flags: HW
LayerCount: 2
Fore
SplineSet
23 714 m 1
 542 711 l 1
 274 6 l 1
 23 714 l 1
EndSplineSet
Validated: 1
EndChar

StartChar: W
Encoding: 87 87 93
Width: 753
Flags: HW
LayerCount: 2
Fore
SplineSet
24 716 m 1
 722 707 l 1
 536 24 l 1
 372 296 l 1
 228 13 l 1
 24 716 l 1
EndSplineSet
Validated: 1
EndChar

StartChar: X
Encoding: 88 88 94
Width: 735
Flags: HW
LayerCount: 2
Fore
SplineSet
30 707 m 1
 673 681 l 1
 499 329 l 1
 699 50 l 1
 49 26 l 1
 199 324 l 1
 30 707 l 1
EndSplineSet
Validated: 1
EndChar

StartChar: Y
Encoding: 89 89 95
Width: 591
Flags: HW
LayerCount: 2
Fore
SplineSet
21 722 m 1
 561 711 l 1
 335 7 l 1
 118 31 l 1
 219 298 l 1
 21 722 l 1
EndSplineSet
Validated: 1
EndChar

StartChar: Z
Encoding: 90 90 96
Width: 871
Flags: HW
LayerCount: 2
Fore
SplineSet
79 707 m 1
 600 741 l 1
 431 326 l 1
 774 307 l 1
 822 33 l 1
 48 43 l 1
 200 498 l 1
 58 495 l 1
 79 707 l 1
EndSplineSet
Validated: 1
EndChar

StartChar: bracketleft
Encoding: 91 91 97
Width: 380
Flags: HW
LayerCount: 2
Fore
SplineSet
317 712 m 1
 326 602 l 1
 200 598 l 1
 217 113 l 1
 339 104 l 1
 337 14 l 1
 110 16 l 1
 113 284 l 1
 27 311 l 1
 101 358 l 1
 113 709 l 1
 317 712 l 1
EndSplineSet
Validated: 1
EndChar

StartChar: backslash
Encoding: 92 92 98
Width: 336
Flags: HW
LayerCount: 2
Fore
SplineSet
199 708 m 1
 296 15 l 1
 175 -5 l 1
 29 698 l 1
 199 708 l 1
EndSplineSet
Validated: 1
EndChar

StartChar: bracketright
Encoding: 93 93 99
Width: 370
Flags: HW
LayerCount: 2
Fore
SplineSet
52 706 m 1
 269 715 l 1
 272 358 l 1
 336 314 l 1
 274 251 l 1
 275 16 l 1
 48 14 l 1
 53 110 l 1
 177 103 l 1
 171 605 l 1
 61 601 l 1
 52 706 l 1
EndSplineSet
Validated: 1
EndChar

StartChar: underscore
Encoding: 95 95 100
Width: 496
Flags: HW
LayerCount: 2
Fore
SplineSet
70 12 m 1
 436 14 l 1
 433 -55 l 1
 62 -55 l 1
 70 12 l 1
EndSplineSet
Validated: 1
EndChar

StartChar: grave
Encoding: 96 96 101
Width: 264
Flags: HW
LayerCount: 2
Fore
SplineSet
49 680 m 1
 150 712 l 1
 207 534 l 1
 135 528 l 1
 49 680 l 1
EndSplineSet
Validated: 1
EndChar

StartChar: braceleft
Encoding: 123 123 102
Width: 380
Flags: HW
LayerCount: 2
Fore
SplineSet
317 712 m 1
 326 602 l 1
 200 598 l 1
 217 113 l 1
 339 104 l 1
 337 14 l 1
 110 16 l 1
 113 284 l 1
 27 311 l 1
 101 358 l 1
 113 709 l 1
 317 712 l 1
EndSplineSet
Validated: 1
EndChar

StartChar: bar
Encoding: 124 124 103
Width: 255
Flags: HW
LayerCount: 2
Fore
SplineSet
59 702 m 1
 171 707 l 1
 188 4 l 1
 90 7 l 1
 59 702 l 1
EndSplineSet
Validated: 1
EndChar

StartChar: braceright
Encoding: 125 125 104
Width: 370
Flags: HW
LayerCount: 2
Fore
SplineSet
52 706 m 1
 269 715 l 1
 272 358 l 1
 336 314 l 1
 274 251 l 1
 275 16 l 1
 48 14 l 1
 53 110 l 1
 177 103 l 1
 171 605 l 1
 61 601 l 1
 52 706 l 1
EndSplineSet
Validated: 1
EndChar

StartChar: asciitilde
Encoding: 126 126 105
Width: 405
Flags: HW
LayerCount: 2
Fore
SplineSet
52 335 m 1
 52 335 78 385 152 388 c 0
 224 391 218 329 261 325 c 0
 284 323 318 345 318 345 c 1
 348 297 l 1
 329 283 309 260 247 271 c 0
 179 284 196 319 149 322 c 0
 111 325 103 307 82 290 c 1
 52 335 l 1
EndSplineSet
Validated: 33
EndChar

StartChar: exclamdown
Encoding: 161 161 106
Width: 277
Flags: HW
LayerCount: 2
Fore
SplineSet
179 628 m 1
 59 629 l 1
 61 727 l 1
 183 717 l 1
 179 628 l 1
227 22 m 1
 92 10 l 1
 62 564 l 1
 176 589 l 1
 227 22 l 1
EndSplineSet
Validated: 1
EndChar

StartChar: degree
Encoding: 176 176 107
Width: 246
Flags: HW
LayerCount: 2
Fore
SplineSet
163 549 m 0
 135 528 105 522 79 545 c 0
 53 568 51 604 77 630 c 0
 103 656 131 665 162 640 c 0
 193 615 191 570 163 549 c 0
EndSplineSet
Validated: 33
EndChar

StartChar: periodcentered
Encoding: 183 183 108
Width: 216
Flags: HW
LayerCount: 2
Fore
SplineSet
100 354 m 1
 128 346 148 333 155 310 c 1
 147 277 134 258 104 257 c 0
 74 256 61 278 60 310 c 0
 59 338 75 350 100 354 c 1
EndSplineSet
Validated: 33
EndChar

StartChar: questiondown
Encoding: 191 191 109
Width: 424
Flags: HW
LayerCount: 2
Fore
SplineSet
203 582 m 1
 121 660 l 1
 179 737 l 1
 272 675 l 1
 203 582 l 1
396 207 m 1
 396 207 340 36 218 15 c 0
 67 -11 8 109 61 204 c 0
 110 292 117 311 150 372 c 0
 170 409 158 456 144 538 c 1
 266 557 l 1
 298 397 l 1
 248 290 212 243 186 195 c 0
 162 151 171 111 205 158 c 0
 251 221 279 268 279 268 c 1
 396 207 l 1
EndSplineSet
Validated: 33
EndChar

StartChar: Agrave
Encoding: 192 192 110
Width: 632
Flags: HW
LayerCount: 2
Fore
SplineSet
292 700 m 1
 330 700 l 1
 595 20 l 1
 50 -1 l 1
 145 700 l 1
 214 700 l 1
 139 831 l 1
 240 863 l 1
 292 700 l 1
EndSplineSet
Validated: 1
EndChar

StartChar: Aacute
Encoding: 193 193 111
Width: 631
Flags: HW
LayerCount: 2
Fore
SplineSet
197 701 m 1
 248 864 l 1
 350 832 l 1
 275 701 l 1
 330 701 l 1
 595 21 l 1
 50 0 l 1
 145 701 l 1
 197 701 l 1
EndSplineSet
Validated: 1
EndChar

StartChar: Atilde
Encoding: 195 195 112
Width: 632
Flags: HW
LayerCount: 2
Fore
SplineSet
140 667 m 1
 137 663 135 659 131 655 c 1
 93 694 l 1
 93 694 111 748 183 763 c 0
 253 777 257 717 301 720 c 0
 324 722 354 748 354 748 c 1
 391 706 l 1
 380 694 369 677 342 669 c 1
 595 20 l 1
 50 -1 l 1
 140 667 l 1
EndSplineSet
Validated: 33
EndChar

StartChar: Adieresis
Encoding: 196 196 113
Width: 632
Flags: HW
LayerCount: 2
Fore
SplineSet
212 700 m 1
 264 700 l 1
 243 775 l 1
 328 776 l 1
 327 700 l 1
 330 700 l 1
 595 20 l 1
 50 -1 l 1
 145 700 l 1
 147 700 l 1
 141 769 l 1
 212 781 l 1
 212 700 l 1
EndSplineSet
Validated: 1
EndChar

StartChar: AE
Encoding: 198 198 114
Width: 979
Flags: HW
LayerCount: 2
Fore
SplineSet
460 377 m 1
 438 710 l 1
 908 709 l 1
 887 513 l 1
 728 515 l 1
 735 380 l 1
 837 389 l 1
 837 302 l 1
 757 291 l 1
 762 154 l 1
 904 158 l 1
 932 2 l 1
 483 20 l 1
 483 24 l 1
 51 7 l 1
 146 707 l 1
 331 707 l 1
 460 377 l 1
EndSplineSet
Validated: 1
EndChar

StartChar: Ccedilla
Encoding: 199 199 115
Width: 662
Flags: HW
LayerCount: 2
Fore
SplineSet
390 13 m 1
 364 12 340 11 322 11 c 0
 230 9 128 86 91 161 c 0
 54 236 45 370 45 455 c 1
 52 575 200 689 339 715 c 1
 427 524 l 1
 427 524 258 428 325 343 c 0
 392 258 498 282 498 282 c 1
 627 22 l 1
 627 22 575 19 513 17 c 1
 519 5 526 -12 534 -35 c 0
 569 -142 397 -151 397 -151 c 1
 395 -93 l 1
 395 -93 468 -86 461 -46 c 0
 454 -6 409 -32 409 -32 c 1
 390 13 l 1
EndSplineSet
Validated: 33
EndChar

StartChar: Ograve
Encoding: 210 210 116
Width: 628
Flags: HW
LayerCount: 2
Fore
SplineSet
298 704 m 1
 473 710 581 555 569 375 c 0
 556 189 528 15 326 15 c 0
 80 15 44 247 49 419 c 0
 53 572 76 663 220 694 c 1
 150 817 l 1
 251 850 l 1
 298 704 l 1
EndSplineSet
Validated: 33
EndChar

StartChar: Oacute
Encoding: 211 211 117
Width: 627
Flags: HW
LayerCount: 2
Fore
SplineSet
270 702 m 1
 317 850 l 1
 418 817 l 1
 352 700 l 1
 495 676 580 536 569 375 c 0
 556 189 528 15 326 15 c 0
 80 15 44 247 49 419 c 0
 54 588 81 681 270 702 c 1
EndSplineSet
Validated: 33
EndChar

StartChar: Ocircumflex
Encoding: 212 212 118
Width: 627
Flags: HW
LayerCount: 2
Fore
SplineSet
116 646 m 1
 91 665 l 1
 296 805 l 1
 484 692 l 1
 461 652 l 1
 536 592 577 489 569 375 c 0
 556 189 528 15 326 15 c 0
 80 15 44 247 49 419 c 0
 52 523 64 599 116 646 c 1
EndSplineSet
Validated: 33
EndChar

StartChar: Otilde
Encoding: 213 213 119
Width: 627
Flags: HW
LayerCount: 2
Fore
SplineSet
160 676 m 1
 142 698 l 1
 142 698 161 750 234 762 c 0
 305 773 307 713 351 714 c 0
 374 715 405 740 405 740 c 1
 440 696 l 1
 435 691 429 685 422 679 c 1
 522 628 578 509 569 377 c 0
 556 191 528 17 326 17 c 0
 80 17 44 249 49 421 c 0
 53 550 69 634 160 676 c 1
EndSplineSet
Validated: 33
EndChar

StartChar: Odieresis
Encoding: 214 214 120
Width: 628
Flags: HW
LayerCount: 2
Fore
SplineSet
268 702 m 1
 272 702 276 703 280 703 c 0
 292 704 303 704 314 704 c 1
 298 762 l 1
 383 762 l 1
 388 691 l 1
 509 651 579 522 569 375 c 0
 556 189 528 15 326 15 c 0
 80 15 44 247 49 419 c 0
 53 564 74 652 198 688 c 1
 196 755 l 1
 268 768 l 1
 268 702 l 1
EndSplineSet
Validated: 33
EndChar

StartChar: multiply
Encoding: 215 215 121
Width: 471
Flags: HW
LayerCount: 2
Fore
SplineSet
407 367 m 1
 310 262 l 1
 427 166 l 1
 350 89 l 1
 228 189 l 1
 149 69 l 1
 76 126 l 1
 154 233 l 1
 45 327 l 1
 115 413 l 1
 229 319 l 1
 322 430 l 1
 407 367 l 1
EndSplineSet
Validated: 1
EndChar

StartChar: Oslash
Encoding: 216 216 122
Width: 631
Flags: HW
LayerCount: 2
Fore
SplineSet
284 703 m 0
 332 708 375 700 413 683 c 1
 467 772 l 1
 539 718 l 1
 494 635 l 1
 550 568 578 455 573 375 c 0
 560 189 532 15 330 15 c 0
 274 15 218 34 182 54 c 1
 130 -13 l 1
 71 26 l 1
 116 119 l 1
 60 202 50 320 53 419 c 0
 58 591 87 684 284 703 c 0
EndSplineSet
Validated: 33
EndChar

StartChar: Ugrave
Encoding: 217 217 123
Width: 666
Flags: HW
LayerCount: 2
Fore
SplineSet
374 715 m 1
 497 716 611 718 611 718 c 1
 611 718 619 444 577 242 c 0
 552 123 439 2 293 6 c 0
 127 11 61 150 58 284 c 0
 54 477 64 713 72 713 c 0
 78 713 181 714 295 715 c 1
 223 842 l 1
 324 875 l 1
 374 715 l 1
EndSplineSet
Validated: 33
EndChar

StartChar: Uacute
Encoding: 218 218 124
Width: 666
Flags: HW
LayerCount: 2
Fore
SplineSet
310 715 m 1
 360 875 l 1
 461 842 l 1
 390 715 l 1
 507 716 611 718 611 718 c 1
 611 718 619 444 577 242 c 0
 552 123 439 2 293 6 c 0
 127 11 61 150 58 284 c 0
 54 477 64 713 72 713 c 0
 78 713 190 714 310 715 c 1
EndSplineSet
Validated: 33
EndChar

StartChar: Ucircumflex
Encoding: 219 219 125
Width: 666
Flags: HW
LayerCount: 2
Fore
SplineSet
149 713 m 1
 345 847 l 1
 533 734 l 1
 523 717 l 1
 576 717 611 718 611 718 c 1
 611 718 619 444 577 242 c 0
 552 123 439 2 293 6 c 0
 127 11 61 150 58 284 c 0
 54 477 64 713 72 713 c 0
 75 713 105 713 149 713 c 1
296 715 m 1
 297 715 l 2
 314 715 330 715 347 715 c 2
 404 716 l 1
 348 740 l 1
 296 715 l 1
EndSplineSet
Validated: 33
EndChar

StartChar: Udieresis
Encoding: 220 220 126
Width: 666
Flags: HW
LayerCount: 2
Fore
SplineSet
310 715 m 1
 347 715 l 1
 360 715 l 1
 340 787 l 1
 425 788 l 1
 431 716 l 1
 530 717 611 718 611 718 c 1
 611 718 619 444 577 242 c 0
 552 123 439 2 293 6 c 0
 127 11 61 150 58 284 c 0
 54 477 64 713 72 713 c 0
 77 713 150 713 240 714 c 1
 238 781 l 1
 310 793 l 1
 310 715 l 1
EndSplineSet
Validated: 33
EndChar

StartChar: agrave
Encoding: 224 224 127
Width: 391
Flags: HW
LayerCount: 2
Fore
SplineSet
288 298 m 1
 340 32 l 1
 340 32 78 -46 55 133 c 0
 45 213 85 268 134 292 c 0
 191 320 288 298 288 298 c 1
104 451 m 1
 180 476 l 1
 222 342 l 1
 168 337 l 1
 104 451 l 1
EndSplineSet
Validated: 33
EndChar

StartChar: aacute
Encoding: 225 225 128
Width: 391
Flags: HW
LayerCount: 2
Fore
SplineSet
288 298 m 1
 340 32 l 1
 340 32 78 -46 55 133 c 0
 45 213 85 268 134 292 c 0
 191 320 288 298 288 298 c 1
287 446 m 1
 222 333 l 1
 169 337 l 1
 211 471 l 1
 287 446 l 1
EndSplineSet
Validated: 33
EndChar

StartChar: acircumflex
Encoding: 226 226 129
Width: 406
Flags: HW
LayerCount: 2
Fore
SplineSet
293 298 m 1
 345 31 l 1
 345 31 82 -48 59 132 c 0
 49 212 89 268 138 292 c 0
 195 320 293 298 293 298 c 1
213 457 m 1
 353 372 l 1
 329 328 l 1
 215 377 l 1
 99 321 l 1
 59 352 l 1
 213 457 l 1
EndSplineSet
Validated: 33
EndChar

StartChar: atilde
Encoding: 227 227 130
Width: 397
Flags: HW
LayerCount: 2
Fore
SplineSet
291 298 m 1
 343 31 l 1
 343 31 80 -48 57 132 c 0
 47 212 87 268 136 292 c 0
 193 320 291 298 291 298 c 1
98 372 m 1
 98 372 111 412 165 423 c 0
 218 434 221 389 254 391 c 0
 271 392 293 412 293 412 c 1
 321 381 l 1
 309 368 297 348 250 349 c 0
 198 350 206 378 171 375 c 0
 143 372 133 363 120 348 c 1
 98 372 l 1
EndSplineSet
Validated: 33
EndChar

StartChar: adieresis
Encoding: 228 228 131
Width: 394
Flags: HW
LayerCount: 2
Fore
SplineSet
290 297 m 1
 342 31 l 1
 342 31 79 -48 56 131 c 0
 46 211 86 267 135 291 c 0
 192 319 290 297 290 297 c 1
132 409 m 1
 186 419 l 1
 186 343 l 1
 137 343 l 1
 132 409 l 1
272 348 m 1
 228 346 l 1
 209 414 l 1
 272 415 l 1
 272 348 l 1
EndSplineSet
Validated: 33
EndChar

StartChar: ae
Encoding: 230 230 132
Width: 565
Flags: HW
LayerCount: 2
Fore
SplineSet
249 223 m 1
 273 275 320 303 368 305 c 0
 422 307 500 286 501 198 c 0
 502 120 419 108 386 106 c 2
 373 106 l 1
 373 106 378 106 386 106 c 2
 496 108 l 1
 496 15 l 1
 461 17 326 -1 268 30 c 2
 268 30 81 -43 59 129 c 0
 49 206 76 269 123 292 c 0
 178 319 236 299 236 299 c 1
 249 223 l 1
EndSplineSet
Validated: 37
EndChar

StartChar: ccedilla
Encoding: 231 231 133
Width: 395
Flags: HW
LayerCount: 2
Fore
SplineSet
185 9 m 1
 89 26 60 92 57 124 c 0
 37 335 234 311 247 309 c 1
 245 209 l 2
 246 208 202 197 212 169 c 0
 221 144 273 158 273 158 c 1
 354 65 l 1
 352 51 325 30 287 17 c 1
 291 8 296 -11 300 -41 c 0
 312 -131 159 -104 159 -104 c 1
 167 -59 l 1
 167 -59 233 -69 234 -36 c 0
 235 -3 190 -14 190 -14 c 1
 185 9 l 1
EndSplineSet
Validated: 33
EndChar

StartChar: egrave
Encoding: 232 232 134
Width: 386
Flags: HW
LayerCount: 2
Fore
SplineSet
209 105 m 2
 319 108 l 1
 319 15 l 1
 271 17 66 -26 56 121 c 0
 48 239 119 301 191 304 c 0
 245 306 323 285 324 197 c 0
 325 119 242 107 209 105 c 2
 196 105 l 1
 196 105 201 105 209 105 c 2
118 454 m 1
 194 479 l 1
 237 345 l 1
 183 340 l 1
 118 454 l 1
EndSplineSet
Validated: 37
EndChar

StartChar: eacute
Encoding: 233 233 135
Width: 405
Flags: HW
LayerCount: 2
Fore
SplineSet
222 105 m 2
 332 108 l 1
 332 15 l 1
 284 17 79 -26 69 121 c 0
 61 239 132 301 204 304 c 0
 258 306 336 285 337 197 c 0
 338 119 255 107 222 105 c 2
 209 105 l 1
 209 105 214 105 222 105 c 2
301 475 m 1
 237 361 l 1
 183 365 l 1
 225 499 l 1
 301 475 l 1
EndSplineSet
EndChar

StartChar: ecircumflex
Encoding: 234 234 136
Width: 403
Flags: HW
LayerCount: 2
Fore
SplineSet
212 105 m 2
 322 108 l 1
 322 15 l 1
 274 17 69 -26 59 121 c 0
 51 239 123 301 195 304 c 0
 249 306 327 285 328 197 c 0
 329 119 245 107 212 105 c 2
 200 105 l 1
 200 105 204 105 212 105 c 2
212 455 m 1
 352 370 l 1
 328 325 l 1
 214 374 l 1
 98 319 l 1
 58 350 l 1
 212 455 l 1
EndSplineSet
Validated: 37
EndChar

StartChar: edieresis
Encoding: 235 235 137
Width: 387
Flags: HW
LayerCount: 2
Fore
SplineSet
209 105 m 2
 319 108 l 1
 319 15 l 1
 271 17 66 -26 56 121 c 0
 48 239 118 301 191 304 c 0
 245 306 323 285 324 197 c 0
 325 119 242 107 209 105 c 2
 196 105 l 1
 196 105 201 105 209 105 c 2
140 417 m 1
 193 427 l 1
 193 351 l 1
 145 351 l 1
 140 417 l 1
279 356 m 1
 235 354 l 1
 216 422 l 1
 280 423 l 1
 279 356 l 1
EndSplineSet
Validated: 37
EndChar

StartChar: igrave
Encoding: 236 236 138
Width: 256
Flags: HW
LayerCount: 2
Fore
SplineSet
84 297 m 1
 167 313 l 1
 198 14 l 1
 70 19 l 1
 84 297 l 1
45 463 m 1
 121 488 l 1
 163 354 l 1
 110 349 l 1
 45 463 l 1
EndSplineSet
Validated: 1
EndChar

StartChar: iacute
Encoding: 237 237 139
Width: 256
Flags: HW
LayerCount: 2
Fore
SplineSet
77 297 m 1
 160 313 l 1
 191 14 l 1
 63 19 l 1
 77 297 l 1
200 460 m 1
 136 346 l 1
 82 351 l 1
 124 485 l 1
 200 460 l 1
EndSplineSet
Validated: 1
EndChar

StartChar: icircumflex
Encoding: 238 238 140
Width: 357
Flags: HW
LayerCount: 2
Fore
SplineSet
124 297 m 1
 207 313 l 1
 238 14 l 1
 110 19 l 1
 124 297 l 1
182 456 m 1
 322 372 l 1
 298 327 l 1
 184 376 l 1
 68 320 l 1
 28 352 l 1
 182 456 l 1
EndSplineSet
Validated: 1
EndChar

StartChar: idieresis
Encoding: 239 239 141
Width: 264
Flags: HW
LayerCount: 2
Fore
SplineSet
85 297 m 1
 168 313 l 1
 199 14 l 1
 71 19 l 1
 85 297 l 1
58 408 m 1
 112 418 l 1
 112 342 l 1
 63 342 l 1
 58 408 l 1
197 347 m 1
 154 345 l 1
 134 413 l 1
 198 414 l 1
 197 347 l 1
EndSplineSet
Validated: 1
EndChar

StartChar: ntilde
Encoding: 241 241 142
Width: 329
Flags: HW
LayerCount: 2
Fore
SplineSet
92 12 m 1
 75 212 l 1
 75 212 70 285 158 283 c 0
 246 281 250 207 250 207 c 1
 264 14 l 1
 92 12 l 1
43 331 m 1
 43 331 56 371 110 382 c 0
 163 393 166 348 199 350 c 0
 216 351 238 371 238 371 c 1
 266 340 l 1
 254 327 242 307 195 308 c 0
 143 309 151 337 116 334 c 0
 88 331 78 322 65 307 c 1
 43 331 l 1
EndSplineSet
Validated: 33
EndChar

StartChar: ograve
Encoding: 242 242 143
Width: 423
Flags: HW
LayerCount: 2
Fore
SplineSet
186 306 m 0
 273 308 340 277 360 194 c 0
 380 111 332 35 243 19 c 0
 154 3 84 24 58 120 c 0
 32 216 99 304 186 306 c 0
119 463 m 1
 195 488 l 1
 237 354 l 1
 183 349 l 1
 119 463 l 1
EndSplineSet
Validated: 33
EndChar

StartChar: oacute
Encoding: 243 243 144
Width: 423
Flags: HW
LayerCount: 2
Fore
SplineSet
186 306 m 0
 273 308 340 277 360 194 c 0
 380 111 332 35 243 19 c 0
 154 3 84 24 58 120 c 0
 32 216 99 304 186 306 c 0
304 460 m 1
 239 346 l 1
 186 351 l 1
 228 485 l 1
 304 460 l 1
EndSplineSet
Validated: 33
EndChar

StartChar: ocircumflex
Encoding: 244 244 145
Width: 429
Flags: HW
LayerCount: 2
Fore
SplineSet
189 306 m 0
 276 308 343 277 363 194 c 0
 383 111 335 35 246 19 c 0
 157 3 87 24 61 120 c 0
 35 216 102 304 189 306 c 0
220 456 m 1
 361 372 l 1
 336 327 l 1
 222 376 l 1
 106 320 l 1
 66 352 l 1
 220 456 l 1
EndSplineSet
Validated: 33
EndChar

StartChar: otilde
Encoding: 245 245 146
Width: 426
Flags: HW
LayerCount: 2
Fore
SplineSet
188 306 m 0
 275 308 342 277 362 194 c 0
 382 111 334 35 245 19 c 0
 156 3 86 24 60 120 c 0
 34 216 101 304 188 306 c 0
96 364 m 1
 96 364 109 405 163 416 c 0
 216 427 219 381 252 383 c 0
 269 384 291 405 291 405 c 1
 319 373 l 1
 307 360 295 341 248 342 c 0
 196 343 204 370 169 367 c 0
 141 364 131 355 118 340 c 1
 96 364 l 1
EndSplineSet
Validated: 33
EndChar

StartChar: odieresis
Encoding: 246 246 147
Width: 426
Flags: HW
LayerCount: 2
Fore
SplineSet
188 306 m 0
 275 308 342 277 362 194 c 0
 382 111 334 35 245 19 c 0
 156 3 86 24 60 120 c 0
 34 216 101 304 188 306 c 0
133 408 m 1
 186 418 l 1
 186 342 l 1
 138 342 l 1
 133 408 l 1
272 347 m 1
 228 345 l 1
 209 413 l 1
 273 414 l 1
 272 347 l 1
EndSplineSet
Validated: 33
EndChar

StartChar: oslash
Encoding: 248 248 148
Width: 473
Flags: HW
LayerCount: 2
Fore
SplineSet
271 301 m 1
 318 358 l 1
 427 294 l 1
 368 233 l 1
 374 222 379 210 383 195 c 0
 403 112 355 36 266 20 c 0
 228 13 193 13 164 23 c 1
 110 -33 l 1
 49 34 l 1
 94 88 l 1
 89 98 84 110 81 122 c 0
 55 217 122 304 209 306 c 0
 231 307 252 305 271 301 c 1
EndSplineSet
Validated: 33
EndChar

StartChar: ugrave
Encoding: 249 249 149
Width: 362
Flags: HW
LayerCount: 2
Fore
SplineSet
72 320 m 1
 298 307 l 1
 293 144 l 2
 289 110 291 2 165 11 c 0
 51 19 58 112 61 170 c 2
 72 320 l 1
95 463 m 1
 171 488 l 1
 213 354 l 1
 160 349 l 1
 95 463 l 1
EndSplineSet
Validated: 33
EndChar

StartChar: uacute
Encoding: 250 250 150
Width: 362
Flags: HW
LayerCount: 2
Fore
SplineSet
72 320 m 1
 298 307 l 1
 293 144 l 2
 289 110 291 2 165 11 c 0
 51 19 58 112 61 170 c 2
 72 320 l 1
269 460 m 1
 204 346 l 1
 151 351 l 1
 193 485 l 1
 269 460 l 1
EndSplineSet
Validated: 33
EndChar

StartChar: ucircumflex
Encoding: 251 251 151
Width: 387
Flags: HW
LayerCount: 2
Fore
SplineSet
84 320 m 1
 310 307 l 1
 306 144 l 2
 302 110 303 2 177 11 c 0
 63 19 70 112 73 170 c 2
 84 320 l 1
205 473 m 1
 336 374 l 1
 307 332 l 1
 199 393 l 1
 78 350 l 1
 41 385 l 1
 205 473 l 1
EndSplineSet
Validated: 33
EndChar

StartChar: udieresis
Encoding: 252 252 152
Width: 364
Flags: HW
LayerCount: 2
Fore
SplineSet
73 320 m 1
 299 307 l 1
 294 144 l 2
 290 110 292 2 166 11 c 0
 52 19 59 112 62 170 c 2
 73 320 l 1
124 408 m 1
 177 418 l 1
 177 342 l 1
 129 342 l 1
 124 408 l 1
263 347 m 1
 219 345 l 1
 200 413 l 1
 264 414 l 1
 263 347 l 1
EndSplineSet
Validated: 33
EndChar

StartChar: yacute
Encoding: 253 253 153
Width: 441
Flags: HW
LayerCount: 2
Fore
SplineSet
33 246 m 1
 109 315 l 1
 248 169 l 1
 293 289 l 1
 367 273 l 1
 382 -167 l 1
 382 -167 380 -295 244 -307 c 0
 97 -320 95 -210 94 -168 c 1
 268 -153 l 1
 249 39 l 1
 33 246 l 1
297 432 m 1
 233 318 l 1
 179 323 l 1
 222 457 l 1
 297 432 l 1
EndSplineSet
Validated: 33
EndChar

StartChar: ydieresis
Encoding: 255 255 154
Width: 441
Flags: HW
LayerCount: 2
Fore
SplineSet
33 246 m 1
 109 315 l 1
 248 169 l 1
 293 289 l 1
 367 273 l 1
 382 -167 l 1
 382 -167 380 -295 244 -307 c 0
 97 -320 95 -210 94 -168 c 1
 268 -153 l 1
 249 39 l 1
 33 246 l 1
152 408 m 1
 206 418 l 1
 206 342 l 1
 157 342 l 1
 152 408 l 1
291 347 m 1
 248 345 l 1
 228 413 l 1
 292 414 l 1
 291 347 l 1
EndSplineSet
Validated: 33
EndChar

StartChar: cent
Encoding: 162 162 155
Width: 392
Flags: HW
LayerCount: 2
Fore
SplineSet
220 319 m 1
 234 319 244 317 247 317 c 2
 245 217 l 2
 246 217 235 214 226 208 c 1
 229 164 l 1
 247 159 273 166 273 166 c 1
 354 73 l 1
 351 54 300 19 238 14 c 1
 241 -36 l 1
 151 -29 l 1
 153 25 l 1
 82 49 60 104 57 132 c 0
 45 254 106 297 162 312 c 1
 164 380 l 1
 216 380 l 1
 220 319 l 1
EndSplineSet
Validated: 33
EndChar

StartChar: sterling
Encoding: 163 163 156
Width: 410
Flags: HW
LayerCount: 2
Fore
SplineSet
176 306 m 1
 177 399 177 495 190 531 c 0
 218 611 353 514 353 514 c 1
 302 462 l 1
 302 462 272 507 251 480 c 0
 236 461 246 420 248 307 c 1
 317 308 l 1
 332 256 l 1
 248 255 l 1
 244 136 207 79 207 79 c 1
 360 97 l 1
 375 14 l 1
 41 14 l 1
 38 79 l 1
 38 79 61 85 116 83 c 0
 141 82 173 160 175 253 c 1
 140 253 l 1
 146 306 l 1
 176 306 l 1
EndSplineSet
Validated: 33
EndChar

StartChar: currency
Encoding: 164 164 157
Width: 490
Flags: HW
LayerCount: 2
Fore
SplineSet
327 286 m 1
 401 327 l 1
 430 257 l 1
 384 231 l 1
 390 220 394 208 397 194 c 0
 407 154 400 115 381 84 c 1
 431 24 l 1
 377 -13 l 1
 318 30 l 1
 306 25 293 22 279 19 c 0
 232 10 191 12 158 30 c 1
 100 -24 l 1
 57 28 l 1
 113 76 l 1
 106 89 100 103 95 120 c 0
 84 159 88 198 104 229 c 1
 79 284 l 1
 131 326 l 1
 172 294 l 1
 188 301 205 306 223 306 c 0
 263 307 298 301 327 286 c 1
EndSplineSet
Validated: 33
EndChar

StartChar: yen
Encoding: 165 165 158
Width: 426
Flags: HW
LayerCount: 2
Fore
SplineSet
182 205 m 1
 187 217 l 1
 39 533 l 1
 395 528 l 1
 292 209 l 1
 334 214 l 1
 329 157 l 1
 276 160 l 1
 264 122 l 1
 323 117 l 1
 312 60 l 1
 245 64 l 1
 226 3 l 1
 111 18 l 1
 128 63 l 1
 74 57 l 1
 64 108 l 1
 148 116 l 1
 161 149 l 1
 64 145 l 1
 69 204 l 1
 182 205 l 1
EndSplineSet
Validated: 1
EndChar

StartChar: brokenbar
Encoding: 166 166 159
Width: 289
Flags: HW
LayerCount: 2
Fore
SplineSet
64 295 m 1
 214 307 l 1
 229 3 l 1
 87 16 l 1
 64 295 l 1
75 717 m 1
 199 711 l 1
 212 394 l 1
 77 411 l 1
 75 717 l 1
EndSplineSet
Validated: 1
EndChar

StartChar: section
Encoding: 167 167 160
Width: 401
Flags: HW
LayerCount: 2
Fore
SplineSet
115 453 m 1
 84 484 58 519 52 557 c 0
 22 741 295 711 295 711 c 1
 310 605 l 1
 310 605 166 655 158 549 c 0
 150 448 374 471 333 246 c 0
 330 230 306 232 295 226 c 1
 326 196 343 175 350 138 c 0
 385 -45 102 20 102 20 c 1
 98 114 l 1
 98 114 248 45 217 147 c 0
 193 225 -1 248 70 428 c 0
 78 447 102 446 115 453 c 1
191 374 m 1
 135 349 157 320 209 279 c 1
 263 303 241 332 191 374 c 1
EndSplineSet
Validated: 33
EndChar

StartChar: dieresis
Encoding: 168 168 161
Width: 264
Flags: HW
LayerCount: 2
Fore
SplineSet
59 409 m 1
 113 418 l 1
 113 342 l 1
 64 342 l 1
 59 409 l 1
198 347 m 1
 155 345 l 1
 135 414 l 1
 199 414 l 1
 198 347 l 1
EndSplineSet
Validated: 1
EndChar

StartChar: copyright
Encoding: 169 169 162
Width: 742
Flags: HW
LayerCount: 2
Fore
SplineSet
599 54 m 0
 516 -6 324 -6 189 100 c 0
 96 173 25 378 45 479 c 0
 65 580 136 689 310 708 c 0
 470 725 631 597 653 506 c 0
 696 332 731 150 599 54 c 0
567 502 m 1
 534 561 442 652 321 640 c 0
 248 633 130 498 141 406 c 0
 164 215 334 82 552 156 c 1
 619 218 644 317 567 502 c 1
429 529 m 1
 427 429 l 2
 428 428 384 417 394 389 c 0
 403 364 455 378 455 378 c 1
 536 285 l 1
 532 263 464 221 389 227 c 0
 275 237 242 309 239 344 c 0
 219 555 416 531 429 529 c 1
EndSplineSet
Validated: 33
EndChar

StartChar: ordfeminine
Encoding: 170 170 163
Width: 288
Flags: HW
LayerCount: 2
Fore
SplineSet
64 567 m 1
 217 568 l 1
 215 531 l 1
 61 531 l 1
 64 567 l 1
182 710 m 1
 205 592 l 1
 205 592 88 557 78 637 c 0
 73 673 91 697 113 708 c 0
 138 720 182 710 182 710 c 1
EndSplineSet
Validated: 33
EndChar

StartChar: logicalnot
Encoding: 172 172 164
Width: 484
Flags: HW
LayerCount: 2
Fore
SplineSet
408 699 m 1
 409 592 l 1
 367 593 l 1
 367 672 l 1
 64 672 l 1
 71 713 l 1
 367 714 l 1
 367 714 l 1
 369 714 l 1
 409 714 l 1
 408 699 l 1
EndSplineSet
Validated: 5
EndChar

StartChar: registered
Encoding: 174 174 165
Width: 742
Flags: HW
LayerCount: 2
Fore
SplineSet
599 54 m 0
 516 -6 324 -6 189 100 c 0
 96 173 25 378 45 479 c 0
 65 580 136 689 310 708 c 0
 470 725 631 597 653 506 c 0
 696 332 731 150 599 54 c 0
567 502 m 1
 534 561 442 652 321 640 c 0
 248 633 130 498 141 406 c 0
 164 215 334 82 552 156 c 1
 619 218 644 317 567 502 c 1
224 231 m 1
 239 524 l 1
 239 524 408 561 456 529 c 0
 536 475 490 366 422 354 c 1
 577 254 l 1
 507 218 l 1
 325 331 l 1
 327 233 l 1
 224 231 l 1
EndSplineSet
Validated: 33
EndChar

StartChar: macron
Encoding: 175 175 166
Width: 314
Flags: HW
LayerCount: 2
Fore
SplineSet
69 714 m 1
 241 709 l 1
 233 644 l 1
 68 657 l 1
 69 714 l 1
EndSplineSet
Validated: 1
EndChar

StartChar: plusminus
Encoding: 177 177 167
Width: 292
Flags: HW
LayerCount: 2
Fore
SplineSet
56 306 m 1
 237 302 l 1
 229 260 l 1
 55 268 l 1
 56 306 l 1
50 455 m 1
 122 453 l 1
 117 531 l 1
 186 530 l 1
 183 454 l 1
 234 452 l 1
 237 407 l 1
 186 403 l 1
 180 326 l 1
 130 328 l 1
 131 402 l 1
 55 401 l 1
 50 455 l 1
EndSplineSet
Validated: 1
EndChar

StartChar: uni00B2
Encoding: 178 178 168
Width: 344
Flags: HW
LayerCount: 2
Fore
SplineSet
56 712 m 1
 148 712 l 1
 148 712 209 716 218 700 c 0
 243 657 248 650 240 630 c 0
 231 608 198 595 198 595 c 1
 270 592 l 1
 285 531 l 1
 79 531 l 1
 77 634 l 1
 87 635 106 636 112 636 c 0
 123 637 143 638 142 655 c 0
 142 660 105 661 96 661 c 0
 90 661 81 661 71 661 c 1
 56 712 l 1
EndSplineSet
Validated: 33
EndChar

StartChar: uni00B3
Encoding: 179 179 169
Width: 270
Flags: HW
LayerCount: 2
Fore
SplineSet
55 714 m 1
 55 714 138 716 148 712 c 0
 167 705 191 688 194 662 c 0
 197 636 163 628 163 628 c 1
 163 628 192 632 199 621 c 0
 206 610 211 593 210 566 c 0
 209 539 173 533 155 530 c 0
 137 527 71 531 71 531 c 1
 68 586 l 1
 68 586 86 590 97 592 c 0
 102 593 116 597 115 606 c 0
 114 621 97 620 91 619 c 0
 81 617 67 616 67 616 c 1
 64 637 l 1
 64 637 74 641 82 644 c 0
 86 646 100 649 99 661 c 0
 98 673 81 671 76 670 c 0
 70 668 62 666 62 666 c 1
 55 714 l 1
EndSplineSet
Validated: 33
EndChar

StartChar: acute
Encoding: 180 180 170
Width: 271
Flags: HW
LayerCount: 2
Fore
SplineSet
214 682 m 1
 127 531 l 1
 56 537 l 1
 113 715 l 1
 214 682 l 1
EndSplineSet
Validated: 1
EndChar

StartChar: mu
Encoding: 181 181 171
Width: 391
Flags: HW
LayerCount: 2
Fore
SplineSet
252 5 m 1
 236 -2 215 -5 188 -3 c 0
 180 -2 172 -1 165 -0 c 1
 137 -215 l 1
 58 -183 l 1
 84 156 l 1
 95 306 l 1
 321 292 l 1
 317 129 l 2
 315 113 314 80 300 51 c 1
 330 14 l 1
 297 -38 l 1
 252 5 l 1
EndSplineSet
Validated: 33
EndChar

StartChar: paragraph
Encoding: 182 182 172
Width: 457
Flags: HW
LayerCount: 2
Fore
SplineSet
379 529 m 1
 399 14 l 1
 329 14 l 1
 310 531 l 1
 379 529 l 1
35 413 m 0
 33 568 263 531 263 531 c 1
 270 14 l 1
 213 14 l 1
 202 272 l 1
 202 272 37 258 35 413 c 0
EndSplineSet
Validated: 33
EndChar

StartChar: cedilla
Encoding: 184 184 173
Width: 254
Flags: HW
LayerCount: 2
Fore
SplineSet
78 19 m 1
 179 18 l 1
 179 18 194 -26 198 -56 c 0
 210 -146 57 -118 57 -118 c 1
 65 -73 l 1
 65 -73 131 -83 132 -50 c 0
 133 -17 88 -28 88 -28 c 1
 78 19 l 1
EndSplineSet
Validated: 33
EndChar

StartChar: uni00B9
Encoding: 185 185 174
Width: 275
Flags: HW
LayerCount: 2
Fore
SplineSet
82 714 m 1
 200 715 l 1
 208 531 l 1
 125 535 l 1
 131 639 l 1
 94 595 l 1
 54 652 l 1
 82 714 l 1
EndSplineSet
Validated: 1
EndChar

StartChar: ordmasculine
Encoding: 186 186 175
Width: 319
Flags: HW
LayerCount: 2
Fore
SplineSet
59 568 m 1
 245 580 l 1
 248 531 l 1
 59 531 l 1
 59 568 l 1
194 617 m 0
 167 594 139 593 110 613 c 0
 94 624 86 664 105 689 c 0
 127 718 159 724 190 699 c 0
 221 674 211 632 194 617 c 0
EndSplineSet
Validated: 33
EndChar

StartChar: onequarter
Encoding: 188 188 176
Width: 420
Flags: HW
LayerCount: 2
Fore
SplineSet
188 565 m 1
 226 699 l 1
 285 692 l 1
 265 589 l 1
 320 593 l 1
 315 519 l 1
 364 509 l 1
 374 412 l 1
 296 406 l 1
 288 468 l 1
 243 475 l 1
 220 358 l 1
 137 382 l 1
 179 531 l 1
 107 535 l 1
 113 639 l 1
 76 595 l 1
 36 652 l 1
 94 715 l 1
 182 715 l 1
 188 565 l 1
EndSplineSet
Validated: 1
EndChar

StartChar: onehalf
Encoding: 189 189 177
Width: 493
Flags: HW
LayerCount: 2
Fore
SplineSet
186 614 m 1
 210 699 l 1
 269 692 l 1
 248 584 l 1
 311 584 l 1
 311 584 372 588 381 572 c 0
 406 529 411 522 403 502 c 0
 394 480 361 467 361 467 c 1
 433 464 l 1
 448 403 l 1
 242 403 l 1
 240 506 l 1
 250 507 269 508 275 508 c 0
 286 509 306 510 305 527 c 0
 305 532 268 534 259 534 c 0
 253 534 246 533 238 533 c 1
 204 358 l 1
 121 382 l 1
 163 532 l 1
 107 535 l 1
 113 639 l 1
 76 595 l 1
 36 652 l 1
 94 715 l 1
 182 715 l 1
 186 614 l 1
EndSplineSet
Validated: 33
EndChar

StartChar: threequarters
Encoding: 190 190 178
Width: 404
Flags: HW
LayerCount: 2
Fore
SplineSet
159 534 m 1
 152 532 144 531 139 530 c 0
 121 527 55 531 55 531 c 1
 52 586 l 1
 52 586 70 590 81 592 c 0
 86 593 100 597 99 606 c 0
 98 621 81 620 75 619 c 0
 65 617 51 616 51 616 c 1
 48 637 l 1
 48 637 58 641 66 644 c 0
 70 646 84 649 83 661 c 0
 82 673 65 671 60 670 c 0
 54 668 46 666 46 666 c 1
 39 714 l 1
 39 714 122 716 132 712 c 0
 151 705 175 688 178 662 c 0
 181 636 147 628 147 628 c 1
 147 628 176 632 183 621 c 2
 183 621 l 1
 205 699 l 1
 264 692 l 1
 244 589 l 1
 303 593 l 1
 299 519 l 1
 348 509 l 1
 358 412 l 1
 280 406 l 1
 271 468 l 1
 225 475 l 1
 228 505 l 1
 200 358 l 1
 117 382 l 1
 159 534 l 1
EndSplineSet
Validated: 37
EndChar

StartChar: Eth
Encoding: 208 208 179
Width: 641
Flags: HW
LayerCount: 2
Fore
SplineSet
112 412 m 1
 95 714 l 1
 339 715 l 1
 535 703 616 332 562 124 c 0
 533 12 472 20 421 15 c 0
 388 12 134 24 134 24 c 1
 119 284 l 1
 37 283 l 1
 43 409 l 1
 112 412 l 1
EndSplineSet
Validated: 33
EndChar

StartChar: Ntilde
Encoding: 209 209 180
Width: 578
Flags: HW
LayerCount: 2
Fore
SplineSet
175 659 m 1
 188 675 210 696 250 704 c 0
 320 718 325 658 369 661 c 0
 392 663 422 689 422 689 c 1
 459 647 l 1
 443 630 426 604 364 605 c 0
 295 606 306 643 259 639 c 0
 247 638 238 635 231 631 c 1
 463 517 l 1
 525 11 l 1
 69 21 l 1
 80 706 l 1
 175 659 l 1
EndSplineSet
Validated: 33
EndChar

StartChar: Thorn
Encoding: 222 222 181
Width: 479
Flags: HW
LayerCount: 2
Fore
SplineSet
45 714 m 1
 212 714 l 1
 217 509 l 1
 217 509 427 548 434 358 c 0
 440 214 225 192 225 192 c 1
 230 11 l 1
 92 14 l 1
 45 714 l 1
EndSplineSet
Validated: 33
EndChar

StartChar: germandbls
Encoding: 223 223 182
Width: 709
Flags: HW
LayerCount: 2
Fore
SplineSet
260 17 m 1
 109 9 l 1
 37 698 l 1
 37 698 203 708 274 713 c 0
 425 723 282 580 310 521 c 0
 354 431 638 513 640 292 c 2
 640 35 l 1
 339 21 l 1
 339 110 l 1
 339 110 437 126 517 137 c 0
 597 148 548 233 524 306 c 0
 500 379 360 336 360 336 c 1
 241 306 l 1
 260 17 l 1
EndSplineSet
Validated: 33
EndChar

StartChar: eth
Encoding: 240 240 183
Width: 449
Flags: HW
LayerCount: 2
Fore
SplineSet
196 585 m 1
 231 606 268 624 309 640 c 1
 372 547 l 1
 332 537 295 526 261 512 c 1
 356 387 405 230 385 156 c 0
 369 96 348 35 259 19 c 0
 170 3 100 25 74 121 c 0
 48 217 144 323 230 306 c 1
 219 365 193 419 164 462 c 1
 139 446 115 428 95 408 c 1
 30 439 l 1
 55 471 83 500 114 526 c 1
 88 556 68 574 68 574 c 1
 129 640 l 1
 152 625 174 606 196 585 c 1
EndSplineSet
Validated: 33
EndChar

StartChar: divide
Encoding: 247 247 184
Width: 587
Flags: HW
LayerCount: 2
Fore
SplineSet
232 98 m 1
 364 87 l 1
 375 14 l 1
 232 14 l 1
 232 98 l 1
66 306 m 1
 532 306 l 1
 528 159 l 1
 52 195 l 1
 66 306 l 1
234 475 m 1
 371 491 l 1
 375 362 l 1
 232 396 l 1
 234 475 l 1
EndSplineSet
Validated: 1
EndChar

StartChar: thorn
Encoding: 254 254 185
Width: 397
Flags: HW
LayerCount: 2
Fore
SplineSet
69 531 m 1
 177 531 l 1
 175 409 l 1
 175 409 337 446 344 306 c 0
 351 154 192 157 192 157 c 1
 190 11 l 1
 73 14 l 1
 69 531 l 1
EndSplineSet
Validated: 33
EndChar

StartChar: at
Encoding: 64 64 186
Width: 706
Flags: HW
LayerCount: 2
Fore
SplineSet
449 369 m 1
 472 307 498 271 518 291 c 0
 564 337 600 447 567 506 c 0
 534 565 442 656 321 644 c 0
 248 637 130 502 141 410 c 0
 164 219 358 73 576 147 c 1
 596 59 l 1
 479 -12 324 -1 189 105 c 0
 96 178 25 382 45 483 c 0
 65 584 136 693 310 712 c 0
 470 729 644 603 653 510 c 0
 669 346 625 271 590 223 c 0
 576 204 507 192 447 223 c 0
 431 231 406 285 396 307 c 1
 335 301 250 309 239 396 c 0
 231 457 263 500 300 518 c 0
 343 539 419 523 419 523 c 1
 449 369 l 1
EndSplineSet
Validated: 33
EndChar

StartChar: uni00AD
Encoding: 173 173 187
Width: 303
Flags: HW
LayerCount: 2
Fore
SplineSet
66 306 m 1
 238 300 l 1
 230 236 l 1
 65 248 l 1
 66 306 l 1
EndSplineSet
Validated: 1
EndChar

StartChar: Aring
Encoding: 197 197 188
Width: 634
Flags: HW
LayerCount: 2
Fore
SplineSet
190 714 m 1
 178 730 175 763 191 784 c 0
 213 813 245 818 276 793 c 0
 305 769 298 731 283 714 c 1
 331 714 l 1
 596 35 l 1
 51 14 l 1
 146 714 l 1
 190 714 l 1
EndSplineSet
Validated: 33
EndChar

StartChar: aring
Encoding: 229 229 189
Width: 393
Flags: HW
LayerCount: 2
Fore
SplineSet
153 299 m 1
 139 313 134 349 152 372 c 0
 174 401 205 407 236 382 c 0
 264 359 258 321 244 304 c 1
 270 302 290 298 290 298 c 1
 342 31 l 1
 342 31 79 -48 56 132 c 0
 46 212 86 268 135 292 c 0
 141 295 147 297 153 299 c 1
EndSplineSet
Validated: 33
EndChar

StartChar: oe
Encoding: 256 339 190
Width: 635
Flags: HW
LayerCount: 2
Fore
SplineSet
336 262 m 1
 362 291 396 306 431 307 c 0
 485 309 563 289 564 201 c 0
 565 123 482 111 449 109 c 2
 436 108 l 1
 436 108 441 109 449 109 c 2
 558 111 l 1
 559 18 l 1
 522 20 390 -6 328 51 c 1
 309 35 284 24 255 19 c 0
 166 3 96 24 70 120 c 0
 44 216 111 304 198 306 c 0
 255 307 304 294 336 262 c 1
EndSplineSet
Validated: 37
EndChar

StartChar: OE
Encoding: 257 338 191
Width: 840
Flags: HW
LayerCount: 2
Fore
SplineSet
303 714 m 1
 773 713 l 1
 752 518 l 1
 593 519 l 1
 600 384 l 1
 702 393 l 1
 702 307 l 1
 622 296 l 1
 627 159 l 1
 769 162 l 1
 797 7 l 1
 391 22 l 1
 370 16 321 10 294 14 c 0
 48 52 47 199 52 374 c 0
 57 549 79 603 181 670 c 0
 202 684 297 718 303 714 c 1
EndSplineSet
Validated: 33
EndChar
